<svg xmlns="http://www.w3.org/2000/svg" xmlns:xlink="http://www.w3.org/1999/xlink" contentStyleType="text/css" data-diagram-type="DESCRIPTION" height="538px" preserveAspectRatio="none" style="width:1697px;height:538px;background:#FFFFFF;" version="1.1" viewBox="0 0 1697 538" width="1697px" zoomAndPan="magnify"><title>Component diagram for Furniture Catalogue SPA - API Application</title><defs/><g><g class="title" data-source-line="1"><text fill="#000000" font-family="sans-serif" font-size="14" font-weight="bold" lengthAdjust="spacing" textLength="523.6875" x="579.6563" y="22.9951">Component diagram for Furniture Catalogue SPA - API Application</text></g><!--cluster Backend API Application (Node.js + Express)--><g class="cluster" data-entity="Backend API Application .Node.js . Express." data-source-line="9" data-uid="ent0005" id="cluster_Backend API Application .Node.js . Express."><path d="M8.5,159.8969 L362.1934,159.8969 A3.75,3.75 0 0 1 364.6934,162.3969 L371.6934,182.1938 L1687.5,182.1938 A2.5,2.5 0 0 1 1690,184.6938 L1690,394.5869 A2.5,2.5 0 0 1 1687.5,397.0869 L8.5,397.0869 A2.5,2.5 0 0 1 6,394.5869 L6,162.3969 A2.5,2.5 0 0 1 8.5,159.8969" fill="none" style="stroke:#000000;stroke-width:1.5;"/><line style="stroke:#000000;stroke-width:1.5;" x1="6" x2="371.6934" y1="182.1938" y2="182.1938"/><text fill="#000000" font-family="sans-serif" font-size="14" font-weight="bold" lengthAdjust="spacing" textLength="352.6934" x="10" y="174.892">Backend API Application (Node.js + Express)</text></g><!--entity projectApi--><g class="entity" data-entity="projectApi" data-source-line="11" data-uid="ent0006" id="entity_projectApi"><rect fill="#F1F1F1" height="46.2969" rx="2.5" ry="2.5" style="stroke:#181818;stroke-width:0.5;" width="115.0518" x="1178.47" y="203.0469"/><rect fill="#F1F1F1" height="10" style="stroke:#181818;stroke-width:0.5;" width="15" x="1273.5218" y="208.0469"/><rect fill="#F1F1F1" height="2" style="stroke:#181818;stroke-width:0.5;" width="4" x="1271.5218" y="210.0469"/><rect fill="#F1F1F1" height="2" style="stroke:#181818;stroke-width:0.5;" width="4" x="1271.5218" y="214.0469"/><text fill="#000000" font-family="sans-serif" font-size="14" lengthAdjust="spacing" textLength="75.0518" x="1193.47" y="236.042">Project API</text></g><!--entity itemApi--><g class="entity" data-entity="itemApi" data-source-line="12" data-uid="ent0007" id="entity_itemApi"><rect fill="#F1F1F1" height="46.2969" rx="2.5" ry="2.5" style="stroke:#181818;stroke-width:0.5;" width="98.4678" x="686.77" y="203.0469"/><rect fill="#F1F1F1" height="10" style="stroke:#181818;stroke-width:0.5;" width="15" x="765.2378" y="208.0469"/><rect fill="#F1F1F1" height="2" style="stroke:#181818;stroke-width:0.5;" width="4" x="763.2378" y="210.0469"/><rect fill="#F1F1F1" height="2" style="stroke:#181818;stroke-width:0.5;" width="4" x="763.2378" y="214.0469"/><text fill="#000000" font-family="sans-serif" font-size="14" lengthAdjust="spacing" textLength="58.4678" x="701.77" y="236.042">Item API</text></g><!--entity itemDetailApi--><g class="entity" data-entity="itemDetailApi" data-source-line="13" data-uid="ent0008" id="entity_itemDetailApi"><rect fill="#F1F1F1" height="46.2969" rx="2.5" ry="2.5" style="stroke:#181818;stroke-width:0.5;" width="144.1592" x="477.92" y="203.0469"/><rect fill="#F1F1F1" height="10" style="stroke:#181818;stroke-width:0.5;" width="15" x="602.0792" y="208.0469"/><rect fill="#F1F1F1" height="2" style="stroke:#181818;stroke-width:0.5;" width="4" x="600.0792" y="210.0469"/><rect fill="#F1F1F1" height="2" style="stroke:#181818;stroke-width:0.5;" width="4" x="600.0792" y="214.0469"/><text fill="#000000" font-family="sans-serif" font-size="14" lengthAdjust="spacing" textLength="104.1592" x="492.92" y="236.042">Item Detail API</text></g><!--entity categoryApi--><g class="entity" data-entity="categoryApi" data-source-line="14" data-uid="ent0009" id="entity_categoryApi"><rect fill="#F1F1F1" height="46.2969" rx="2.5" ry="2.5" style="stroke:#181818;stroke-width:0.5;" width="130.5488" x="820.73" y="203.0469"/><rect fill="#F1F1F1" height="10" style="stroke:#181818;stroke-width:0.5;" width="15" x="931.2788" y="208.0469"/><rect fill="#F1F1F1" height="2" style="stroke:#181818;stroke-width:0.5;" width="4" x="929.2788" y="210.0469"/><rect fill="#F1F1F1" height="2" style="stroke:#181818;stroke-width:0.5;" width="4" x="929.2788" y="214.0469"/><text fill="#000000" font-family="sans-serif" font-size="14" lengthAdjust="spacing" textLength="90.5488" x="835.73" y="236.042">Category API</text></g><!--entity catalogueApi--><g class="entity" data-entity="catalogueApi" data-source-line="15" data-uid="ent0010" id="entity_catalogueApi"><rect fill="#F1F1F1" height="46.2969" rx="2.5" ry="2.5" style="stroke:#181818;stroke-width:0.5;" width="137.8496" x="197.08" y="203.0469"/><rect fill="#F1F1F1" height="10" style="stroke:#181818;stroke-width:0.5;" width="15" x="314.9296" y="208.0469"/><rect fill="#F1F1F1" height="2" style="stroke:#181818;stroke-width:0.5;" width="4" x="312.9296" y="210.0469"/><rect fill="#F1F1F1" height="2" style="stroke:#181818;stroke-width:0.5;" width="4" x="312.9296" y="214.0469"/><text fill="#000000" font-family="sans-serif" font-size="14" lengthAdjust="spacing" textLength="97.8496" x="212.08" y="236.042">Catalogue API</text></g><!--entity itemNewApi--><g class="entity" data-entity="itemNewApi" data-source-line="16" data-uid="ent0011" id="entity_itemNewApi"><rect fill="#F1F1F1" height="46.2969" rx="2.5" ry="2.5" style="stroke:#181818;stroke-width:0.5;" width="133.4541" x="986.27" y="203.0469"/><rect fill="#F1F1F1" height="10" style="stroke:#181818;stroke-width:0.5;" width="15" x="1099.7241" y="208.0469"/><rect fill="#F1F1F1" height="2" style="stroke:#181818;stroke-width:0.5;" width="4" x="1097.7241" y="210.0469"/><rect fill="#F1F1F1" height="2" style="stroke:#181818;stroke-width:0.5;" width="4" x="1097.7241" y="214.0469"/><text fill="#000000" font-family="sans-serif" font-size="14" lengthAdjust="spacing" textLength="93.4541" x="1001.27" y="236.042">New Item API</text></g><!--entity projectService--><g class="entity" data-entity="projectService" data-source-line="18" data-uid="ent0012" id="entity_projectService"><rect fill="#F1F1F1" height="62.5938" rx="2.5" ry="2.5" style="stroke:#181818;stroke-width:0.5;" width="223.4561" x="1149.27" y="318.4869"/><rect fill="#F1F1F1" height="10" style="stroke:#181818;stroke-width:0.5;" width="15" x="1352.7261" y="323.4869"/><rect fill="#F1F1F1" height="2" style="stroke:#181818;stroke-width:0.5;" width="4" x="1350.7261" y="325.4869"/><rect fill="#F1F1F1" height="2" style="stroke:#181818;stroke-width:0.5;" width="4" x="1350.7261" y="329.4869"/><text fill="#000000" font-family="sans-serif" font-size="14" lengthAdjust="spacing" textLength="134.1826" x="1164.27" y="351.482">Project Component</text><text fill="#000000" font-family="sans-serif" font-size="14" lengthAdjust="spacing" textLength="183.4561" x="1164.27" y="367.7789">Business logic for projects</text></g><!--entity itemService--><g class="entity" data-entity="itemService" data-source-line="19" data-uid="ent0013" id="entity_itemService"><rect fill="#F1F1F1" height="62.5938" rx="2.5" ry="2.5" style="stroke:#181818;stroke-width:0.5;" width="206.1885" x="632.91" y="318.4869"/><rect fill="#F1F1F1" height="10" style="stroke:#181818;stroke-width:0.5;" width="15" x="819.0985" y="323.4869"/><rect fill="#F1F1F1" height="2" style="stroke:#181818;stroke-width:0.5;" width="4" x="817.0985" y="325.4869"/><rect fill="#F1F1F1" height="2" style="stroke:#181818;stroke-width:0.5;" width="4" x="817.0985" y="329.4869"/><text fill="#000000" font-family="sans-serif" font-size="14" lengthAdjust="spacing" textLength="117.5986" x="647.91" y="351.482">Item Component</text><text fill="#000000" font-family="sans-serif" font-size="14" lengthAdjust="spacing" textLength="166.1885" x="647.91" y="367.7789">Business logic for items</text></g><!--entity itemDetailService--><g class="entity" data-entity="itemDetailService" data-source-line="20" data-uid="ent0014" id="entity_itemDetailService"><rect fill="#F1F1F1" height="62.5938" rx="2.5" ry="2.5" style="stroke:#181818;stroke-width:0.5;" width="271.1982" x="326.4" y="318.4869"/><rect fill="#F1F1F1" height="10" style="stroke:#181818;stroke-width:0.5;" width="15" x="577.5982" y="323.4869"/><rect fill="#F1F1F1" height="2" style="stroke:#181818;stroke-width:0.5;" width="4" x="575.5982" y="325.4869"/><rect fill="#F1F1F1" height="2" style="stroke:#181818;stroke-width:0.5;" width="4" x="575.5982" y="329.4869"/><text fill="#000000" font-family="sans-serif" font-size="14" lengthAdjust="spacing" textLength="163.29" x="341.4" y="351.482">Item Detail Component</text><text fill="#000000" font-family="sans-serif" font-size="14" lengthAdjust="spacing" textLength="231.1982" x="341.4" y="367.7789">Business logic for item metadata</text></g><!--entity categoryService--><g class="entity" data-entity="categoryService" data-source-line="21" data-uid="ent0015" id="entity_categoryService"><rect fill="#F1F1F1" height="62.5938" rx="2.5" ry="2.5" style="stroke:#181818;stroke-width:0.5;" width="240.6484" x="873.68" y="318.4869"/><rect fill="#F1F1F1" height="10" style="stroke:#181818;stroke-width:0.5;" width="15" x="1094.3284" y="323.4869"/><rect fill="#F1F1F1" height="2" style="stroke:#181818;stroke-width:0.5;" width="4" x="1092.3284" y="325.4869"/><rect fill="#F1F1F1" height="2" style="stroke:#181818;stroke-width:0.5;" width="4" x="1092.3284" y="329.4869"/><text fill="#000000" font-family="sans-serif" font-size="14" lengthAdjust="spacing" textLength="149.6797" x="888.68" y="351.482">Category Component</text><text fill="#000000" font-family="sans-serif" font-size="14" lengthAdjust="spacing" textLength="200.6484" x="888.68" y="367.7789">Business logic for categories</text></g><!--entity catalogueService--><g class="entity" data-entity="catalogueService" data-source-line="22" data-uid="ent0016" id="entity_catalogueService"><rect fill="#F1F1F1" height="62.5938" rx="2.5" ry="2.5" style="stroke:#181818;stroke-width:0.5;" width="269.3594" x="22.32" y="318.4869"/><rect fill="#F1F1F1" height="10" style="stroke:#181818;stroke-width:0.5;" width="15" x="271.6794" y="323.4869"/><rect fill="#F1F1F1" height="2" style="stroke:#181818;stroke-width:0.5;" width="4" x="269.6794" y="325.4869"/><rect fill="#F1F1F1" height="2" style="stroke:#181818;stroke-width:0.5;" width="4" x="269.6794" y="329.4869"/><text fill="#000000" font-family="sans-serif" font-size="14" lengthAdjust="spacing" textLength="156.9805" x="37.32" y="351.482">Catalogue Component</text><text fill="#000000" font-family="sans-serif" font-size="14" lengthAdjust="spacing" textLength="229.3594" x="37.32" y="367.7789">Business logic for search/browse</text></g><!--entity imageService--><g class="entity" data-entity="imageService" data-source-line="23" data-uid="ent0017" id="entity_imageService"><rect fill="#F1F1F1" height="62.5938" rx="2.5" ry="2.5" style="stroke:#181818;stroke-width:0.5;" width="265.9414" x="1408.03" y="318.4869"/><rect fill="#F1F1F1" height="10" style="stroke:#181818;stroke-width:0.5;" width="15" x="1653.9714" y="323.4869"/><rect fill="#F1F1F1" height="2" style="stroke:#181818;stroke-width:0.5;" width="4" x="1651.9714" y="325.4869"/><rect fill="#F1F1F1" height="2" style="stroke:#181818;stroke-width:0.5;" width="4" x="1651.9714" y="329.4869"/><text fill="#000000" font-family="sans-serif" font-size="14" lengthAdjust="spacing" textLength="183.0801" x="1423.03" y="351.482">Image Upload Component</text><text fill="#000000" font-family="sans-serif" font-size="14" lengthAdjust="spacing" textLength="225.9414" x="1423.03" y="367.7789">Handles image storage/retrieval</text></g><!--entity security--><g class="entity" data-entity="security" data-source-line="24" data-uid="ent0018" id="entity_security"><rect fill="#F1F1F1" height="62.5938" rx="2.5" ry="2.5" style="stroke:#181818;stroke-width:0.5;" width="279.2783" x="1361.36" y="194.8969"/><rect fill="#F1F1F1" height="10" style="stroke:#181818;stroke-width:0.5;" width="15" x="1620.6383" y="199.8969"/><rect fill="#F1F1F1" height="2" style="stroke:#181818;stroke-width:0.5;" width="4" x="1618.6383" y="201.8969"/><rect fill="#F1F1F1" height="2" style="stroke:#181818;stroke-width:0.5;" width="4" x="1618.6383" y="205.8969"/><text fill="#000000" font-family="sans-serif" font-size="14" lengthAdjust="spacing" textLength="218.1553" x="1376.36" y="227.892">Validation/Security Component</text><text fill="#000000" font-family="sans-serif" font-size="14" lengthAdjust="spacing" textLength="239.2783" x="1376.36" y="244.1889">Middleware for validation &amp; errors</text></g><!--entity spa--><g class="entity" data-entity="spa" data-source-line="4" data-uid="ent0002" id="entity_spa"><rect fill="#F1F1F1" height="52.5938" rx="2.5" ry="2.5" style="stroke:#181818;stroke-width:0.5;" width="123.9404" x="741.03" y="44.2969"/><text fill="#000000" font-family="sans-serif" font-size="14" lengthAdjust="spacing" textLength="94.4658" x="751.03" y="67.292">Frontend SPA</text><text fill="#000000" font-family="sans-serif" font-size="14" lengthAdjust="spacing" textLength="103.9404" x="751.03" y="83.5889">React.js + Vite</text></g><!--entity db--><g class="entity" data-entity="db" data-source-line="5" data-uid="ent0003" id="entity_db"><path d="M562.51,470.0869 C562.51,460.0869 735.9983,460.0869 735.9983,460.0869 C735.9983,460.0869 909.4866,460.0869 909.4866,470.0869 L909.4866,511.6806 C909.4866,521.6806 735.9983,521.6806 735.9983,521.6806 C735.9983,521.6806 562.51,521.6806 562.51,511.6806 L562.51,470.0869" fill="#F1F1F1" style="stroke:#181818;stroke-width:0.5;"/><path d="M562.51,470.0869 C562.51,480.0869 735.9983,480.0869 735.9983,480.0869 C735.9983,480.0869 909.4866,480.0869 909.4866,470.0869" fill="none" style="stroke:#181818;stroke-width:0.5;"/><text fill="#000000" font-family="sans-serif" font-size="14" lengthAdjust="spacing" textLength="138.6055" x="572.51" y="497.082">MongoDB Database</text><text fill="#000000" font-family="sans-serif" font-size="14" lengthAdjust="spacing" textLength="326.9766" x="572.51" y="513.3789">Stores projects, items, categories, item details</text></g><!--entity fs--><g class="entity" data-entity="fs" data-source-line="6" data-uid="ent0004" id="entity_fs"><rect fill="#F1F1F1" height="52.5938" rx="2.5" ry="2.5" style="stroke:#181818;stroke-width:0.5;" width="225.666" x="1428.17" y="464.5869"/><text fill="#000000" font-family="sans-serif" font-size="14" lengthAdjust="spacing" textLength="140.3281" x="1438.17" y="487.582">File System Storage</text><text fill="#000000" font-family="sans-serif" font-size="14" lengthAdjust="spacing" textLength="205.666" x="1438.17" y="503.8789">Stores uploaded item images</text></g><!--link spa to projectApi--><g class="link" data-entity-1="spa" data-entity-2="projectApi" data-source-line="28" data-uid="lnk19" id="link_spa_projectApi"><path d="M865.43,78.4269 C934.65,87.8069 1048.24,108.7269 1137,151.8969 C1164.5,165.2769 1187.5972,182.6923 1206.6672,198.8923" fill="none" id="spa-to-projectApi" style="stroke:#181818;stroke-width:1;"/><polygon fill="#181818" points="1211.24,202.7769,1206.9706,193.9015,1207.4294,199.5397,1201.7911,199.9985,1211.24,202.7769" style="stroke:#181818;stroke-width:1;"/><text fill="#000000" font-family="sans-serif" font-size="13" lengthAdjust="spacing" textLength="78.1714" x="1112" y="139.9638">JSON/HTTPS</text></g><!--link spa to itemApi--><g class="link" data-entity-1="spa" data-entity-2="itemApi" data-source-line="29" data-uid="lnk20" id="link_spa_itemApi"><path d="M775.69,97.3769 C767.92,106.0569 760.17,116.2669 755,126.8969 C743.21,151.1169 739.2228,176.0671 737.5228,196.6971" fill="none" id="spa-to-itemApi" style="stroke:#181818;stroke-width:1;"/><polygon fill="#181818" points="737.03,202.6769,741.7556,194.0358,737.4406,197.6938,733.7826,193.3788,737.03,202.6769" style="stroke:#181818;stroke-width:1;"/><text fill="#000000" font-family="sans-serif" font-size="13" lengthAdjust="spacing" textLength="78.1714" x="756" y="139.9638">JSON/HTTPS</text></g><!--link spa to itemDetailApi--><g class="link" data-entity-1="spa" data-entity-2="itemDetailApi" data-source-line="30" data-uid="lnk21" id="link_spa_itemDetailApi"><path d="M740.53,90.2569 C714.62,99.3669 684.86,111.6869 660,126.8969 C625.27,148.1469 595.3819,176.5758 574.5919,198.3658" fill="none" id="spa-to-itemDetailApi" style="stroke:#181818;stroke-width:1;"/><polygon fill="#181818" points="570.45,202.7069,579.5568,198.9565,573.9015,199.0893,573.7687,193.434,570.45,202.7069" style="stroke:#181818;stroke-width:1;"/><text fill="#000000" font-family="sans-serif" font-size="13" lengthAdjust="spacing" textLength="78.1714" x="661" y="139.9638">JSON/HTTPS</text></g><!--link spa to categoryApi--><g class="link" data-entity-1="spa" data-entity-2="categoryApi" data-source-line="31" data-uid="lnk22" id="link_spa_categoryApi"><path d="M820.75,97.3269 C826.81,106.4969 833.45,117.0069 839,126.8969 C853.26,152.2969 864.9327,177.2242 873.9127,197.4242" fill="none" id="spa-to-categoryApi" style="stroke:#181818;stroke-width:1;"/><polygon fill="#181818" points="876.35,202.9069,876.3491,193.058,874.3189,198.338,869.0389,196.3078,876.35,202.9069" style="stroke:#181818;stroke-width:1;"/><text fill="#000000" font-family="sans-serif" font-size="13" lengthAdjust="spacing" textLength="78.1714" x="848" y="139.9638">JSON/HTTPS</text></g><!--link spa to catalogueApi--><g class="link" data-entity-1="spa" data-entity-2="catalogueApi" data-source-line="32" data-uid="lnk23" id="link_spa_catalogueApi"><path d="M740.74,82.7069 C671.31,95.8869 556.11,120.1469 460,151.8969 C412.99,167.4269 366.092,185.2165 327.582,200.3965" fill="none" id="spa-to-catalogueApi" style="stroke:#181818;stroke-width:1;"/><polygon fill="#181818" points="322,202.5969,331.8399,203.0177,326.6517,200.7633,328.9061,195.5751,322,202.5969" style="stroke:#181818;stroke-width:1;"/><text fill="#000000" font-family="sans-serif" font-size="13" lengthAdjust="spacing" textLength="78.1714" x="545" y="139.9638">JSON/HTTPS</text></g><!--link spa to itemNewApi--><g class="link" data-entity-1="spa" data-entity-2="itemNewApi" data-source-line="33" data-uid="lnk24" id="link_spa_itemNewApi"><path d="M865.23,94.1269 C887.76,103.1969 913.06,114.4669 935,126.8969 C951.32,136.1369 954.37,140.1669 969,151.8969 C989.54,168.3569 1007.4936,184.0104 1024.0036,198.8204" fill="none" id="spa-to-itemNewApi" style="stroke:#181818;stroke-width:1;"/><polygon fill="#181818" points="1028.47,202.8269,1024.4414,193.8396,1024.748,199.4882,1019.0995,199.7948,1028.47,202.8269" style="stroke:#181818;stroke-width:1;"/><text fill="#000000" font-family="sans-serif" font-size="13" lengthAdjust="spacing" textLength="78.1714" x="959" y="139.9638">JSON/HTTPS</text></g><!--link projectApi to projectService--><g class="link" data-entity-1="projectApi" data-entity-2="projectService" data-source-line="35" data-uid="lnk25" id="link_projectApi_projectService"><path d="M1240.64,249.7769 C1244.6,269.0069 1249.1014,290.9399 1253.4714,312.1899" fill="none" id="projectApi-to-projectService" style="stroke:#181818;stroke-width:1;"/><polygon fill="#181818" points="1254.68,318.0669,1256.7851,308.4456,1253.6728,313.1694,1248.9491,310.0571,1254.68,318.0669" style="stroke:#181818;stroke-width:1;"/></g><!--link itemApi to itemService--><g class="link" data-entity-1="itemApi" data-entity-2="itemService" data-source-line="36" data-uid="lnk26" id="link_itemApi_itemService"><path d="M736,249.7769 C736,269.0069 736,290.8169 736,312.0669" fill="none" id="itemApi-to-itemService" style="stroke:#181818;stroke-width:1;"/><polygon fill="#181818" points="736,318.0669,740,309.0669,736,313.0669,732,309.0669,736,318.0669" style="stroke:#181818;stroke-width:1;"/></g><!--link itemDetailApi to itemDetailService--><g class="link" data-entity-1="itemDetailApi" data-entity-2="itemDetailService" data-source-line="37" data-uid="lnk27" id="link_itemDetailApi_itemDetailService"><path d="M533.65,249.7769 C519.74,269.0069 503.1279,291.9564 487.7479,313.2064" fill="none" id="itemDetailApi-to-itemDetailService" style="stroke:#181818;stroke-width:1;"/><polygon fill="#181818" points="484.23,318.0669,492.7471,313.1213,487.1616,314.0164,486.2665,308.4309,484.23,318.0669" style="stroke:#181818;stroke-width:1;"/></g><!--link categoryApi to categoryService--><g class="link" data-entity-1="categoryApi" data-entity-2="categoryService" data-source-line="38" data-uid="lnk28" id="link_categoryApi_categoryService"><path d="M906.06,249.7769 C923.14,269.0069 943.8549,292.3315 962.7349,313.5815" fill="none" id="categoryApi-to-categoryService" style="stroke:#181818;stroke-width:1;"/><polygon fill="#181818" points="966.72,318.0669,963.7326,308.682,963.3991,314.3291,957.752,313.9956,966.72,318.0669" style="stroke:#181818;stroke-width:1;"/></g><!--link catalogueApi to catalogueService--><g class="link" data-entity-1="catalogueApi" data-entity-2="catalogueService" data-source-line="39" data-uid="lnk29" id="link_catalogueApi_catalogueService"><path d="M245.75,249.7769 C228.51,269.0069 207.5951,292.3493 188.5451,313.5993" fill="none" id="catalogueApi-to-catalogueService" style="stroke:#181818;stroke-width:1;"/><polygon fill="#181818" points="184.54,318.0669,193.526,314.0355,187.8776,314.3439,187.5692,308.6954,184.54,318.0669" style="stroke:#181818;stroke-width:1;"/></g><!--link itemNewApi to itemService--><g class="link" data-entity-1="itemNewApi" data-entity-2="itemService" data-source-line="40" data-uid="lnk30" id="link_itemNewApi_itemService"><path d="M994.12,249.7769 C943.98,269.0069 877.0922,294.6684 821.6822,315.9184" fill="none" id="itemNewApi-to-itemService" style="stroke:#181818;stroke-width:1;"/><polygon fill="#181818" points="816.08,318.0669,825.9155,318.579,820.7485,316.2765,823.0509,311.1094,816.08,318.0669" style="stroke:#181818;stroke-width:1;"/></g><!--link itemNewApi to imageService--><g class="link" data-entity-1="itemNewApi" data-entity-2="imageService" data-source-line="41" data-uid="lnk31" id="link_itemNewApi_imageService"><path d="M1120.01,246.4169 C1133.55,250.1769 1147.71,254.0269 1161,257.4869 C1242.75,278.7669 1329.019,299.575 1402.079,316.735" fill="none" id="itemNewApi-to-imageService" style="stroke:#181818;stroke-width:1;"/><polygon fill="#181818" points="1407.92,318.1069,1400.073,312.155,1403.0525,316.9636,1398.2438,319.943,1407.92,318.1069" style="stroke:#181818;stroke-width:1;"/></g><!--link projectService to db--><g class="link" data-entity-1="projectService" data-entity-2="db" data-source-line="43" data-uid="lnk32" id="link_projectService_db"><path d="M1194.6,381.5369 C1174.75,389.9569 1152.75,398.5569 1132,405.0869 C1060.4,427.5969 985.5445,444.9052 915.7345,458.8052" fill="none" id="projectService-to-db" style="stroke:#181818;stroke-width:1;"/><polygon fill="#181818" points="909.85,459.9769,919.4578,462.1424,914.7537,459.0005,917.8956,454.2964,909.85,459.9769" style="stroke:#181818;stroke-width:1;"/><text fill="#000000" font-family="sans-serif" font-size="13" lengthAdjust="spacing" textLength="93.5327" x="1101" y="426.1538">CRUD Projects</text></g><!--link itemService to db--><g class="link" data-entity-1="itemService" data-entity-2="db" data-source-line="44" data-uid="lnk33" id="link_itemService_db"><path d="M736,381.3069 C736,404.6669 736,430.6869 736,453.9069" fill="none" id="itemService-to-db" style="stroke:#181818;stroke-width:1;"/><polygon fill="#181818" points="736,459.9069,740,450.9069,736,454.9069,732,450.9069,736,459.9069" style="stroke:#181818;stroke-width:1;"/><text fill="#000000" font-family="sans-serif" font-size="13" lengthAdjust="spacing" textLength="78.1333" x="737" y="426.1538">CRUD Items</text></g><!--link itemDetailService to db--><g class="link" data-entity-1="itemDetailService" data-entity-2="db" data-source-line="45" data-uid="lnk34" id="link_itemDetailService_db"><path d="M517.89,381.5569 C545.45,396.5269 579.29,414.5869 610,430.0869 C629.56,439.9569 645.6166,447.7605 665.2066,457.0305" fill="none" id="itemDetailService-to-db" style="stroke:#181818;stroke-width:1;"/><polygon fill="#181818" points="670.63,459.5969,664.2058,452.1317,666.1105,457.4582,660.7839,459.3629,670.63,459.5969" style="stroke:#181818;stroke-width:1;"/><text fill="#000000" font-family="sans-serif" font-size="13" lengthAdjust="spacing" textLength="116.4287" x="611" y="426.1538">CRUD ItemDetails</text></g><!--link categoryService to db--><g class="link" data-entity-1="categoryService" data-entity-2="db" data-source-line="46" data-uid="lnk35" id="link_categoryService_db"><path d="M937.06,381.4869 C893.88,404.7669 840.1113,433.7495 797.1913,456.8895" fill="none" id="categoryService-to-db" style="stroke:#181818;stroke-width:1;"/><polygon fill="#181818" points="791.91,459.7369,801.7302,458.9867,796.3111,457.3641,797.9337,451.9449,791.91,459.7369" style="stroke:#181818;stroke-width:1;"/><text fill="#000000" font-family="sans-serif" font-size="13" lengthAdjust="spacing" textLength="111.8394" x="873" y="426.1538">CRUD Categories</text></g><!--link catalogueService to db--><g class="link" data-entity-1="catalogueService" data-entity-2="db" data-source-line="47" data-uid="lnk36" id="link_catalogueService_db"><path d="M236.39,381.5269 C259.58,389.8569 285.12,398.4069 309,405.0869 C391.25,428.0769 478.1881,446.2163 556.2381,460.5063" fill="none" id="catalogueService-to-db" style="stroke:#181818;stroke-width:1;"/><polygon fill="#181818" points="562.14,461.5869,554.0075,456.0314,557.2218,460.6864,552.5668,463.9006,562.14,461.5869" style="stroke:#181818;stroke-width:1;"/><text fill="#000000" font-family="sans-serif" font-size="13" lengthAdjust="spacing" textLength="136.1509" x="403" y="426.1538">Query Items/Projects</text></g><!--link imageService to fs--><g class="link" data-entity-1="imageService" data-entity-2="fs" data-source-line="48" data-uid="lnk37" id="link_imageService_fs"><path d="M1541,381.3069 C1541,406.0969 1541,434.6769 1541,458.0969" fill="none" id="imageService-to-fs" style="stroke:#181818;stroke-width:1;"/><polygon fill="#181818" points="1541,464.0969,1545,455.0969,1541,459.0969,1537,455.0969,1541,464.0969" style="stroke:#181818;stroke-width:1;"/><text fill="#000000" font-family="sans-serif" font-size="13" lengthAdjust="spacing" textLength="145.4185" x="1542" y="426.1538">Store/Retrieve Images</text></g><!--SRC=[XLNBRjim4BphAnOwz87MzRr02lZH82aGrxMINEeUQ6djC9L9WQJi6aN_FSk79CgnNS1n0CveTcQvAnjkIeI9t5PIe31GSBPHR0jhgU2wLeARMX7E32lbfaR8vYCOm6X-2wEgAddE39SYITx2rTKLN2if38e26FrbHYgsGGia2dF3n8OgfIs7b9PYWImtdvurV817RZ05fa5NB2ceu8ffujz9iP7JCKp3oL9OOTHGAVbCileZq8DR-aTUS2CLnt041Hh6I-r4YrNF1AVlxA0jA_XiTUkgbAp0mclmBM5UOgsRd6EM_xOHnh8M1LC7bx6YGvitRT2Z9i6xcIpGP_twfw9I-dqAVnC0-loS-pJseL-sM4WtghX5RwsL1hA-ulEfYzc3_L4WJNnV3YqZDEhGuU5o8u8_2OmPxk6L1JgqCE5vEprf4wCTgAKOrveB2Wkao7CtMCtLfL7I3DMEvzYNSqKlQxdBJnjJvrL2b_ul1bjYslbB-zqyATtszh9kDvffV07d9CDrNDRKo5J-D5mfkTUOzgxjT1Vi9CE3c-vO-eQMjQIvTvCEsc_3KA4XkpjM-YvOxAJg8ojvuUPxc65UAsvwlRZZ1Odl6Rr3hETTouOtW4f9vHkYmwF9lsR55bWwddxYbNRxHQy560o-H9i1d-5RzdqslBc_dsSj7jRZFDWknsbAj1rd2UrsdA_YrwEF9v7tA4hJsCPv8n6VTwRxCHfEx3fE4U6TwLwAk4emVSf03CNJaFH3E4AnejoJnSCKmlj09v7S4SLkfqvU9Jh1yhXEZh8TCIVjhYN76JlcZnffQLtfOUSnokMeQqrKzxCmNFXzG71hf5y0]--></g></svg>